<svg viewBox="0 0 64 64" xmlns="http://www.w3.org/2000/svg" aria-labelledby="title"
aria-describedby="desc" role="img" xmlns:xlink="http://www.w3.org/1999/xlink"
width="128" height="128">
  <title>Hourglass</title>
  <desc>A solid styled icon from Orion Icon Library.</desc>
  <path fill="#7b7b7b"
  d="M50 59H14a1 1 0 0 0-1 1v3a1 1 0 0 0 1 1h36a1 1 0 0 0 1-1v-3a1 1 0 0 0-1-1zM14 5h36a1 1 0 0 0 1-1V1a1 1 0 0 0-1-1H14a1 1 0 0 0-1 1v3a1 1 0 0 0 1 1z"
  data-name="layer2"></path>
  <path fill="#7b7b7b" d="M44.974 26.394A15 15 0 0 0 49 16.2V7h-2v9.2a13 13 0 0 1-3.392 8.735c-4.6 1.788-8.535.937-12.345.109-3.484-.759-7.081-1.537-10.956-.2A13.006 13.006 0 0 1 17 16.2V7h-2v9.2a15.018 15.018 0 0 0 6.378 12.274l5.522 3.882-5.526 3.882A15.018 15.018 0 0 0 15 48.513V57h34v-8.487a15.018 15.018 0 0 0-6.378-12.274l-5.61-3.939a60.694 60.694 0 0 0 7.962-5.906zm-3.5 11.481A13.013 13.013 0 0 1 47 48.513v5.355c-2.889-.671-6.79-3.9-9.473-6.122a82.472 82.472 0 0 0-1.906-1.552 6.1 6.1 0 0 0-7.257.021c-.5.394-1.075.873-1.709 1.4-2.731 2.276-6.708 5.585-9.655 6.254v-5.356a13.013 13.013 0 0 1 5.528-10.638l5.525-3.882c.022-.015.037-.037.059-.053a6.612 6.612 0 0 1 2.765 3.126C31.1 37.5 31.354 38 32 38c.705 0 .935-.584 1.072-.934a6.853 6.853 0 0 1 2.534-3.379 1.992 1.992 0 0 0 .339.306z"
  data-name="layer1"></path>
</svg>