<?xml version="1.0" encoding="utf-8"?>
<!-- Generator: Adobe Illustrator 20.1.0, SVG Export Plug-In . SVG Version: 6.00 Build 0)  -->
<svg version="1.1" id="Calque_1" xmlns="http://www.w3.org/2000/svg" xmlns:xlink="http://www.w3.org/1999/xlink" x="0px" y="0px"
	 viewBox="0 0 128 128" style="enable-background:new 0 0 128 128;" xml:space="preserve">
<style type="text/css">
	.st0{fill:none;stroke:#7b7b7b;stroke-width:4;stroke-miterlimit:10;}
	.st1{fill:#7b7b7b;}
	.st2{font-family:'Montserrat-Bold';}
	.st3{font-size:12px;}
</style>
<circle class="st0" cx="95.2" cy="44.3" r="21.4"/>
<title>Hourglass</title>
<desc>A solid styled icon from Orion Icon Library.</desc>
<path class="st1" d="M100,118H28c-1.1,0-2,0.9-2,2v6c0,1.1,0.9,2,2,2h72c1.1,0,2-0.9,2-2v-6C102,118.9,101.1,118,100,118z M28,10h72
	c1.1,0,2-0.9,2-2V2c0-1.1-0.9-2-2-2H28c-1.1,0-2,0.9-2,2v6C26,9.1,26.9,10,28,10z"/>
<circle class="st0" cx="95.2" cy="44.3" r="21.4"/>
<text transform="matrix(1 0 0 1 78.2359 46.966)" class="st1 st2 st3">-1min</text>
<g>
	<path class="st1" d="M85.2,72.5L74,64.6c1.2-0.8,2.4-1.5,3.6-2.3c-2.9-2.9-5.2-6.5-6.4-10.5c-3-0.4-5.8-1-8.7-1.6
		c-7-1.5-14.2-3.1-21.9-0.4C36.4,44.9,34,38.8,34,32.4V14h-4v18.4c0,9.8,4.8,18.9,12.8,24.5l11,7.8l-11.1,7.8
		C34.8,78.1,30,87.3,30,97v17h68V97C98,87.2,93.2,78.1,85.2,72.5z M94,107.7c-5.8-1.3-13.6-7.8-18.9-12.2c-1.3-1.1-2.5-2.1-3.8-3.1
		c-4.3-3.2-10.2-3.2-14.5,0c-1,0.8-2.2,1.7-3.4,2.8c-5.5,4.6-13.4,11.2-19.3,12.5V97c0-8.5,4.1-16.4,11.1-21.3l11-7.8l0.1-0.1
		c2.5,1.4,4.4,3.6,5.5,6.3c0.4,0.9,1,1.9,2.2,1.9c1.4,0,1.9-1.2,2.1-1.9c0.9-2.7,2.7-5.1,5.1-6.8c0.2,0.2,0.4,0.4,0.7,0.6l11,7.9
		C89.9,80.6,94,88.6,94,97V107.7z"/>
	<path class="st1" d="M95.2,19.2c0.9,0,1.9,0.1,2.8,0.2V14h-4v5.2C94.4,19.2,94.8,19.2,95.2,19.2z"/>
</g>
</svg>
